<svg width="20" height="20" viewBox="0 0 20 20" fill="none" xmlns="http://www.w3.org/2000/svg">
<path fill-rule="evenodd" clip-rule="evenodd" d="M9.19161 3.30876C9.30865 3.42595 9.37439 3.5848 9.37439 3.75043C9.37439 3.91605 9.30865 4.07491 9.19161 4.19209L4.00827 9.37543H17.4999C17.6657 9.37543 17.8247 9.44127 17.9419 9.55848C18.0591 9.67569 18.1249 9.83467 18.1249 10.0004C18.1249 10.1662 18.0591 10.3252 17.9419 10.4424C17.8247 10.5596 17.6657 10.6254 17.4999 10.6254H4.00827L9.19161 15.8088C9.25301 15.866 9.30226 15.935 9.33642 16.0116C9.37058 16.0883 9.38895 16.1711 9.39043 16.255C9.39191 16.3389 9.37648 16.4223 9.34504 16.5001C9.31361 16.5779 9.26682 16.6486 9.20747 16.708C9.14812 16.7673 9.07743 16.8141 8.9996 16.8455C8.92178 16.877 8.83842 16.8924 8.7545 16.8909C8.67058 16.8894 8.58782 16.8711 8.51116 16.8369C8.43449 16.8027 8.36549 16.7535 8.30827 16.6921L2.05827 10.4421C1.94123 10.3249 1.87549 10.1661 1.87549 10.0004C1.87549 9.8348 1.94123 9.67595 2.05827 9.55876L8.30827 3.30876C8.42546 3.19172 8.58431 3.12598 8.74994 3.12598C8.91556 3.12598 9.07442 3.19172 9.19161 3.30876Z" fill="black"/>
</svg>
