<svg width="26" height="26" viewBox="0 0 26 26" fill="none" xmlns="http://www.w3.org/2000/svg">
<path fill-rule="evenodd" clip-rule="evenodd" d="M7.3125 2.4375C7.76123 2.4375 8.125 2.80127 8.125 3.25V4.875H17.875V3.25C17.875 2.80127 18.2388 2.4375 18.6875 2.4375C19.1362 2.4375 19.5 2.80127 19.5 3.25V4.875H20.3125C21.1745 4.875 22.0011 5.21741 22.6106 5.8269C23.2201 6.4364 23.5625 7.26305 23.5625 8.125V20.3125C23.5625 21.1745 23.2201 22.0011 22.6106 22.6106C22.0011 23.2201 21.1745 23.5625 20.3125 23.5625H5.6875C4.82555 23.5625 3.9989 23.2201 3.3894 22.6106C2.77991 22.0011 2.4375 21.1745 2.4375 20.3125V8.125C2.4375 7.26305 2.77991 6.4364 3.3894 5.8269C3.9989 5.21741 4.82555 4.875 5.6875 4.875H6.5V3.25C6.5 2.80127 6.86377 2.4375 7.3125 2.4375ZM5.6875 6.5C5.25652 6.5 4.8432 6.67121 4.53845 6.97595C4.2337 7.2807 4.0625 7.69402 4.0625 8.125V9.37291C4.55236 9.09011 5.11206 8.9375 5.6875 8.9375H20.3125C20.8879 8.9375 21.4476 9.09011 21.9375 9.37291V8.125C21.9375 7.69402 21.7663 7.2807 21.4615 6.97595C21.1568 6.67121 20.7435 6.5 20.3125 6.5H5.6875ZM21.9375 12.1875C21.9375 11.7565 21.7663 11.3432 21.4615 11.0385C21.1568 10.7337 20.7435 10.5625 20.3125 10.5625H5.6875C5.25652 10.5625 4.8432 10.7337 4.53845 11.0385C4.2337 11.3432 4.0625 11.7565 4.0625 12.1875V20.3125C4.0625 20.7435 4.2337 21.1568 4.53845 21.4615C4.8432 21.7663 5.25652 21.9375 5.6875 21.9375H20.3125C20.7435 21.9375 21.1568 21.7663 21.4615 21.4615C21.7663 21.1568 21.9375 20.7435 21.9375 20.3125V12.1875Z" fill="#282828"/>
</svg>
