<svg width="18" height="19" viewBox="0 0 18 19" fill="none" xmlns="http://www.w3.org/2000/svg">
<path fill-rule="evenodd" clip-rule="evenodd" d="M4.10249 4.60286C4.20796 4.49752 4.35093 4.43835 4.49999 4.43835C4.64906 4.43835 4.79202 4.49752 4.89749 4.60286L8.99999 8.70536L13.1025 4.60286C13.154 4.54759 13.2161 4.50327 13.2851 4.47252C13.3541 4.44178 13.4286 4.42525 13.5041 4.42392C13.5796 4.42258 13.6546 4.43648 13.7247 4.46477C13.7947 4.49306 13.8584 4.53517 13.9118 4.58858C13.9652 4.64199 14.0073 4.70562 14.0356 4.77566C14.0639 4.8457 14.0778 4.92072 14.0764 4.99625C14.0751 5.07178 14.0586 5.14626 14.0278 5.21526C13.9971 5.28426 13.9528 5.34636 13.8975 5.39786L9.79499 9.50036L13.8975 13.6029C13.9528 13.6544 13.9971 13.7165 14.0278 13.7855C14.0586 13.8545 14.0751 13.9289 14.0764 14.0045C14.0778 14.08 14.0639 14.155 14.0356 14.2251C14.0073 14.2951 13.9652 14.3587 13.9118 14.4121C13.8584 14.4656 13.7947 14.5077 13.7247 14.536C13.6546 14.5642 13.5796 14.5781 13.5041 14.5768C13.4286 14.5755 13.3541 14.5589 13.2851 14.5282C13.2161 14.4975 13.154 14.4531 13.1025 14.3979L8.99999 10.2954L4.89749 14.3979C4.79086 14.4972 4.64983 14.5513 4.5041 14.5487C4.35838 14.5462 4.21934 14.4871 4.11628 14.3841C4.01322 14.281 3.95418 14.142 3.95161 13.9963C3.94904 13.8505 4.00313 13.7095 4.10249 13.6029L8.20499 9.50036L4.10249 5.39786C3.99716 5.29239 3.93799 5.14942 3.93799 5.00036C3.93799 4.8513 3.99716 4.70833 4.10249 4.60286Z" fill="black"/>
</svg>
