<svg width="32" height="41" viewBox="0 0 32 41" fill="none" xmlns="http://www.w3.org/2000/svg">
<g clip-path="url(#clip0_8586_7001)">
<path d="M26.7068 40.7625H3.85052C2.91658 40.7613 2.02124 40.4035 1.36084 39.7677C0.700444 39.132 0.328886 38.27 0.327637 37.3709V5.85986C0.330135 4.31962 0.966774 2.84315 2.09805 1.75404C3.22933 0.664916 4.76296 0.0519878 6.36284 0.0495831H16.4026C17.8633 0.0455462 19.2692 0.584656 20.3268 1.55444L28.4541 8.98778C29.0136 9.50023 29.4594 10.1165 29.7646 10.7995C30.0698 11.4824 30.228 12.2179 30.2297 12.9614V37.3936C30.2223 38.2888 29.8479 39.1449 29.1882 39.7758C28.5285 40.4068 27.6367 40.7613 26.7068 40.7625ZM6.36284 0.936127C5.69267 0.93732 5.02931 1.06566 4.41071 1.31379C3.79209 1.56194 3.23033 1.92503 2.75756 2.38229C2.28478 2.83957 1.91024 3.38206 1.65536 3.97877C1.40048 4.57547 1.27025 5.21468 1.27211 5.85986V37.3936C1.27336 38.0516 1.54541 38.6823 2.02869 39.1476C2.51197 39.6128 3.16707 39.8747 3.85052 39.8759H26.7068C27.3903 39.8747 28.0453 39.6128 28.5286 39.1476C29.012 38.6823 29.284 38.0516 29.2852 37.3936V12.9386C29.284 12.3187 29.1524 11.7055 28.8983 11.1359C28.6443 10.5663 28.2731 10.052 27.8072 9.62427L19.6753 2.19093C18.7933 1.38195 17.6207 0.93238 16.4026 0.936127H6.36284Z" fill="#121A29"/>
<path d="M12.3697 8.2836H6.42894C5.77891 8.2836 5.15552 8.03501 4.69588 7.5925C4.23625 7.14999 3.97803 6.54983 3.97803 5.92402C3.97803 5.29823 4.23625 4.69806 4.69588 4.25556C5.15552 3.81305 5.77891 3.56445 6.42894 3.56445H12.3697C13.0198 3.56445 13.6432 3.81305 14.1028 4.25556C14.5623 4.69806 14.8206 5.29823 14.8206 5.92402C14.8206 6.54983 14.5623 7.14999 14.1028 7.5925C13.6432 8.03501 13.0198 8.2836 12.3697 8.2836ZM6.42894 4.49646C6.02941 4.49646 5.64623 4.64925 5.36373 4.92124C5.08122 5.19323 4.9225 5.56212 4.9225 5.94676C4.9225 6.33141 5.08122 6.70029 5.36373 6.97227C5.64623 7.24425 6.02941 7.39705 6.42894 7.39705H12.3697C12.7692 7.39705 13.1524 7.24425 13.4349 6.97227C13.7174 6.70029 13.8762 6.33141 13.8762 5.94676C13.8762 5.56212 13.7174 5.19323 13.4349 4.92124C13.1524 4.64925 12.7692 4.49646 12.3697 4.49646H6.42894Z" fill="#121A29"/>
<path d="M20.3502 29.397H10.2065V18.4856H20.3502V29.397ZM11.151 28.4876H19.4057V19.3949H11.151V28.4876Z" fill="#121A29"/>
<path d="M19.8779 19.4086C19.7585 19.4082 19.6439 19.3643 19.5568 19.2858C19.5109 19.245 19.4739 19.1959 19.4479 19.1414C19.4218 19.0868 19.4073 19.0277 19.4051 18.9677C19.4029 18.9077 19.4131 18.8478 19.4351 18.7916C19.4571 18.7354 19.4903 18.6839 19.5331 18.6402L23.8493 14.212C23.9351 14.1239 24.0537 14.0724 24.1791 14.0686C24.3044 14.0647 24.4262 14.109 24.5175 14.1916C24.609 14.2742 24.6626 14.3883 24.6666 14.509C24.6706 14.6296 24.6246 14.7469 24.5388 14.8349L20.2225 19.2631C20.1785 19.3088 20.1252 19.3453 20.0659 19.3703C20.0067 19.3953 19.9426 19.4084 19.8779 19.4086Z" fill="#121A29"/>
<path d="M19.8779 19.4086C19.7585 19.4082 19.6439 19.3643 19.5568 19.2858C19.5109 19.245 19.4739 19.1959 19.4479 19.1414C19.4218 19.0868 19.4073 19.0277 19.4051 18.9677C19.4029 18.9077 19.4131 18.8478 19.4351 18.7916C19.4571 18.7354 19.4903 18.6839 19.5331 18.6402L23.8493 14.212C23.9351 14.1239 24.0537 14.0724 24.1791 14.0686C24.3044 14.0647 24.4262 14.109 24.5175 14.1916C24.609 14.2742 24.6626 14.3883 24.6666 14.509C24.6706 14.6296 24.6246 14.7469 24.5388 14.8349L20.2225 19.2631C20.1785 19.3088 20.1252 19.3453 20.0659 19.3703C20.0067 19.3953 19.9426 19.4084 19.8779 19.4086Z" fill="#121A29"/>
<path d="M10.9291 19.4088C10.8643 19.4086 10.8004 19.3955 10.741 19.3705C10.6817 19.3455 10.6284 19.309 10.5844 19.2633L6.26815 14.8352C6.18235 14.7471 6.13639 14.6299 6.14038 14.5092C6.14436 14.3885 6.19797 14.2744 6.2894 14.1918C6.38083 14.1093 6.50259 14.0649 6.62791 14.0688C6.75321 14.0726 6.87182 14.1242 6.95761 14.2122L11.2739 18.6404C11.3379 18.7051 11.3807 18.7863 11.3969 18.8741C11.4132 18.962 11.4024 19.0525 11.3655 19.1344C11.3288 19.2164 11.2678 19.2861 11.1902 19.3348C11.1127 19.3836 11.0218 19.4094 10.9291 19.4088Z" fill="#121A29"/>
<path d="M24.1941 33.8257C24.1297 33.8261 24.0659 33.8137 24.0066 33.7895C23.9473 33.7653 23.8938 33.7296 23.8493 33.6847L19.5331 29.2565C19.4903 29.2128 19.4571 29.1614 19.4351 29.1051C19.4131 29.0489 19.4029 28.9891 19.4051 28.929C19.4073 28.869 19.4218 28.8099 19.4479 28.7554C19.4739 28.7008 19.5109 28.6517 19.5568 28.611C19.6483 28.5292 19.7697 28.4857 19.8945 28.49C20.0193 28.4942 20.1373 28.5459 20.2225 28.6337L24.5388 33.0618C24.6012 33.1266 24.6427 33.2075 24.6581 33.2946C24.6735 33.3816 24.6622 33.4711 24.6257 33.5522C24.5891 33.6332 24.5288 33.7022 24.4521 33.7508C24.3756 33.7993 24.2858 33.8254 24.1941 33.8257Z" fill="#121A29"/>
<path d="M6.60792 33.8257C6.51617 33.8254 6.42647 33.7993 6.34983 33.7508C6.27318 33.7022 6.2129 33.6332 6.17632 33.5522C6.13976 33.4711 6.1285 33.3816 6.14393 33.2946C6.15936 33.2075 6.20079 33.1266 6.26318 33.0618L10.5795 28.6337C10.6647 28.5459 10.7828 28.4942 10.9075 28.49C11.0323 28.4857 11.1538 28.5292 11.2453 28.611C11.2912 28.6517 11.3282 28.7008 11.3541 28.7554C11.3802 28.8099 11.3947 28.869 11.3969 28.929C11.3992 28.9891 11.3889 29.0489 11.367 29.1051C11.345 29.1614 11.3116 29.2128 11.2689 29.2565L6.95267 33.6847C6.90822 33.7296 6.85471 33.7653 6.79542 33.7895C6.73613 33.8137 6.67233 33.8261 6.60792 33.8257Z" fill="#121A29"/>
<path d="M28.576 7.81978L22.6636 2.62781L25.1476 0L31.0647 5.19198L28.576 7.81978ZM23.9906 2.56871L28.5099 6.53315L29.7236 5.25562L25.2042 1.28663L23.9906 2.56871Z" fill="#121A29"/>
<path d="M23.7371 2.95459L22.4868 4.27505L23.1848 4.8876L24.4351 3.56713L23.7371 2.95459Z" fill="#121A29"/>
<path d="M27.4348 6.20776L26.1851 7.52866L26.8833 8.14096L28.133 6.82007L27.4348 6.20776Z" fill="#121A29"/>
</g>
<defs>
<clipPath id="clip0_8586_7001">
<rect width="31.4333" height="41" fill="white" transform="translate(0.327637)"/>
</clipPath>
</defs>
</svg>
