<svg width="18" height="19" viewBox="0 0 18 19" fill="none" xmlns="http://www.w3.org/2000/svg">
<path fill-rule="evenodd" clip-rule="evenodd" d="M1.6875 9.5C1.6875 5.46125 4.96125 2.1875 9 2.1875C13.0387 2.1875 16.3125 5.46125 16.3125 9.5C16.3125 13.5387 13.0387 16.8125 9 16.8125C4.96125 16.8125 1.6875 13.5387 1.6875 9.5ZM11.7075 8.1395C11.7525 8.07954 11.7851 8.01119 11.8033 7.93846C11.8215 7.86574 11.825 7.79011 11.8135 7.71602C11.8021 7.64192 11.7759 7.57087 11.7366 7.50702C11.6973 7.44318 11.6457 7.38783 11.5847 7.34424C11.5237 7.30064 11.4546 7.26968 11.3815 7.25317C11.3084 7.23666 11.2327 7.23494 11.1589 7.2481C11.0851 7.26126 11.0146 7.28904 10.9517 7.32981C10.8888 7.37058 10.8347 7.42351 10.7925 7.4855L8.3655 10.883L7.1475 9.665C7.04087 9.56564 6.89983 9.51155 6.75411 9.51412C6.60838 9.51669 6.46934 9.57572 6.36628 9.67878C6.26322 9.78184 6.20419 9.92088 6.20162 10.0666C6.19905 10.2123 6.25314 10.3534 6.3525 10.46L8.04 12.1475C8.09774 12.2052 8.16735 12.2496 8.24399 12.2777C8.32063 12.3058 8.40247 12.3169 8.48382 12.3102C8.56517 12.3035 8.64409 12.2792 8.7151 12.2389C8.7861 12.1986 8.84749 12.1434 8.895 12.077L11.7075 8.1395Z" fill="black"/>
</svg>
