<svg width="18" height="19" viewBox="0 0 18 19" fill="none" xmlns="http://www.w3.org/2000/svg">
<path fill-rule="evenodd" clip-rule="evenodd" d="M9 2.1875C4.96125 2.1875 1.6875 5.46125 1.6875 9.5C1.6875 13.5387 4.96125 16.8125 9 16.8125C13.0387 16.8125 16.3125 13.5387 16.3125 9.5C16.3125 5.46125 13.0387 2.1875 9 2.1875ZM9 8.65625C8.77622 8.65625 8.56161 8.74514 8.40338 8.90338C8.24514 9.06161 8.15625 9.27622 8.15625 9.5C8.15625 9.72378 8.24514 9.93839 8.40338 10.0966C8.56161 10.2549 8.77622 10.3438 9 10.3438C9.22378 10.3438 9.43839 10.2549 9.59662 10.0966C9.75486 9.93839 9.84375 9.72378 9.84375 9.5C9.84375 9.27622 9.75486 9.06161 9.59662 8.90338C9.43839 8.74514 9.22378 8.65625 9 8.65625ZM11.5312 9.5C11.5312 9.27622 11.6201 9.06161 11.7784 8.90338C11.9366 8.74514 12.1512 8.65625 12.375 8.65625C12.5988 8.65625 12.8134 8.74514 12.9716 8.90338C13.1299 9.06161 13.2188 9.27622 13.2188 9.5C13.2188 9.72378 13.1299 9.93839 12.9716 10.0966C12.8134 10.2549 12.5988 10.3438 12.375 10.3438C12.1512 10.3438 11.9366 10.2549 11.7784 10.0966C11.6201 9.93839 11.5312 9.72378 11.5312 9.5ZM5.625 8.65625C5.40122 8.65625 5.18661 8.74514 5.02838 8.90338C4.87014 9.06161 4.78125 9.27622 4.78125 9.5C4.78125 9.72378 4.87014 9.93839 5.02838 10.0966C5.18661 10.2549 5.40122 10.3438 5.625 10.3438C5.84878 10.3438 6.06339 10.2549 6.22162 10.0966C6.37986 9.93839 6.46875 9.72378 6.46875 9.5C6.46875 9.27622 6.37986 9.06161 6.22162 8.90338C6.06339 8.74514 5.84878 8.65625 5.625 8.65625Z" fill="#282828"/>
</svg>
