<svg width="34" height="41" viewBox="0 0 34 41" fill="none" xmlns="http://www.w3.org/2000/svg">
<g clip-path="url(#clip0_8586_6995)">
<path d="M27.2404 40.7236H6.36462C5.60519 40.7222 4.85352 40.5692 4.1526 40.2733C3.45168 39.9775 2.81529 39.5448 2.27986 38.9998C1.74444 38.4548 1.32048 37.8083 1.03225 37.0974C0.744018 36.3864 0.597182 35.6249 0.600142 34.8564V20.2708C0.600031 18.8124 1.02236 17.3859 1.8149 16.1678L10.127 3.36904C10.7987 2.32995 11.7165 1.47738 12.797 0.888963C13.8775 0.300545 15.0863 -0.00503098 16.3133 6.26505e-05H28.3765C29.4654 6.26505e-05 30.5096 0.437749 31.2795 1.21683C32.0494 1.99592 32.482 3.05259 32.482 4.15437V35.4027C32.4849 36.1009 32.3515 36.7928 32.0894 37.4386C31.8271 38.0844 31.4415 38.6714 30.9544 39.1658C30.4673 39.6604 29.8885 40.0525 29.2511 40.3199C28.6137 40.5872 27.9304 40.7244 27.2404 40.7236ZM16.2964 1.13823C15.2585 1.13377 14.236 1.3917 13.3217 1.88861C12.4073 2.38551 11.6301 3.10565 11.0606 3.98365L2.74847 16.788C2.07817 17.8228 1.72231 19.0336 1.72492 20.2708V34.8564C1.72641 36.1026 2.21631 37.2974 3.08715 38.1786C3.958 39.0598 5.13868 39.5555 6.37024 39.5571H27.2461C28.3339 39.5555 29.3768 39.1172 30.1455 38.3383C30.9141 37.5593 31.346 36.5036 31.346 35.4027V4.15437C31.3444 3.3549 31.0299 2.58861 30.4713 2.0233C29.9126 1.45799 29.1553 1.13973 28.3653 1.13823H16.2964Z" fill="#121A29"/>
<path d="M27.6105 25.0399H6.23256C5.48868 25.04 4.77492 24.7446 4.24674 24.2182C3.71858 23.6917 3.41879 22.9769 3.41267 22.2293V20.4021C3.40572 18.74 3.90478 17.1156 4.84288 15.7468L12.6193 4.38778C12.942 3.91483 13.374 3.52749 13.8782 3.25893C14.3824 2.99037 14.9439 2.84859 15.5145 2.8457H26.9331C27.8544 2.8457 28.7381 3.21356 29.3897 3.86834C30.0412 4.52312 30.4073 5.41119 30.4073 6.33719V22.2293C30.4012 22.9729 30.1046 23.6842 29.5815 24.21C29.0582 24.7358 28.3504 25.0339 27.6105 25.0399ZM15.5377 4.00954C15.1511 4.00762 14.77 4.10106 14.4278 4.28166C14.0855 4.46226 13.7926 4.72448 13.5747 5.04534L5.80409 16.4101C4.99703 17.583 4.56663 18.9761 4.57074 20.4021V22.2293C4.57226 22.6702 4.74723 23.0926 5.05747 23.4044C5.36771 23.7162 5.78804 23.892 6.22678 23.8936H27.6047C28.0445 23.8936 28.4663 23.7185 28.7778 23.4065C29.0893 23.0946 29.265 22.6712 29.2666 22.2293V6.32556C29.2666 5.70823 29.0225 5.11618 28.5882 4.67965C28.1538 4.24313 27.5646 3.99789 26.9504 3.99789L15.5377 4.00954Z" fill="#121A29"/>
<path d="M28.1284 31.4933H17.4712V29.5015C17.4712 28.9219 17.6987 28.3661 18.1037 27.9562C18.5087 27.5464 19.058 27.3162 19.6308 27.3162H22.8026H25.9745C26.5463 27.3177 27.0941 27.5486 27.4979 27.9582C27.9017 28.3679 28.1285 28.9229 28.1284 29.5015V31.4933ZM18.5959 30.355H27.0036V29.5015C27.0036 29.2247 26.8954 28.9593 26.7026 28.7631C26.5097 28.5669 26.248 28.4559 25.9745 28.4543H19.6308C19.3568 28.4559 19.0944 28.5667 18.9007 28.7627C18.707 28.9587 18.5974 29.2242 18.5959 29.5015V30.355Z" fill="#121A29"/>
</g>
<defs>
<clipPath id="clip0_8586_6995">
<rect width="32.8" height="41" fill="white" transform="translate(0.600098)"/>
</clipPath>
</defs>
</svg>
