<svg width="27" height="26" viewBox="0 0 27 26" fill="none" xmlns="http://www.w3.org/2000/svg">
<path d="M13.5 8.125C12.8535 8.125 12.2335 8.38181 11.7764 8.83893C11.3193 9.29605 11.0625 9.91603 11.0625 10.5625C11.0625 11.209 11.3193 11.829 11.7764 12.2861C12.2335 12.7432 12.8535 13 13.5 13C14.1465 13 14.7665 12.7432 15.2236 12.2861C15.6807 11.829 15.9375 11.209 15.9375 10.5625C15.9375 9.91603 15.6807 9.29605 15.2236 8.83893C14.7665 8.38181 14.1465 8.125 13.5 8.125Z" fill="#282828"/>
<path fill-rule="evenodd" clip-rule="evenodd" d="M2.125 5.28125C2.125 4.15892 3.035 3.25 4.15625 3.25H22.8438C23.965 3.25 24.875 4.16 24.875 5.28125V15.8438C24.875 16.9661 23.965 17.875 22.8438 17.875H4.15625C3.8895 17.875 3.62537 17.8225 3.37892 17.7204C3.13248 17.6183 2.90856 17.4687 2.71994 17.2801C2.53132 17.0914 2.3817 16.8675 2.27962 16.6211C2.17754 16.3746 2.125 16.1105 2.125 15.8438V5.28125ZM9.4375 10.5625C9.4375 9.48506 9.86551 8.45175 10.6274 7.68988C11.3892 6.92801 12.4226 6.5 13.5 6.5C14.5774 6.5 15.6108 6.92801 16.3726 7.68988C17.1345 8.45175 17.5625 9.48506 17.5625 10.5625C17.5625 11.6399 17.1345 12.6733 16.3726 13.4351C15.6108 14.197 14.5774 14.625 13.5 14.625C12.4226 14.625 11.3892 14.197 10.6274 13.4351C9.86551 12.6733 9.4375 11.6399 9.4375 10.5625ZM20.8125 9.75C20.597 9.75 20.3903 9.8356 20.238 9.98798C20.0856 10.1403 20 10.347 20 10.5625V10.5712C20 11.0197 20.364 11.3837 20.8125 11.3837H20.8212C21.0367 11.3837 21.2433 11.2981 21.3957 11.1457C21.5481 10.9933 21.6337 10.7867 21.6337 10.5712V10.5625C21.6337 10.347 21.5481 10.1403 21.3957 9.98798C21.2433 9.8356 21.0367 9.75 20.8212 9.75H20.8125ZM5.375 10.5625C5.375 10.347 5.4606 10.1403 5.61298 9.98798C5.76535 9.8356 5.97201 9.75 6.1875 9.75H6.19617C6.41165 9.75 6.61832 9.8356 6.77069 9.98798C6.92306 10.1403 7.00867 10.347 7.00867 10.5625V10.5712C7.00867 10.7867 6.92306 10.9933 6.77069 11.1457C6.61832 11.2981 6.41165 11.3837 6.19617 11.3837H6.1875C5.97201 11.3837 5.76535 11.2981 5.61298 11.1457C5.4606 10.9933 5.375 10.7867 5.375 10.5712V10.5625Z" fill="#282828"/>
<path d="M2.9375 19.5C2.72201 19.5 2.51535 19.5856 2.36298 19.738C2.2106 19.8903 2.125 20.097 2.125 20.3125C2.125 20.528 2.2106 20.7347 2.36298 20.887C2.51535 21.0394 2.72201 21.125 2.9375 21.125C8.7875 21.125 14.4533 21.9072 19.8375 23.3729C21.1267 23.7239 22.4375 22.7684 22.4375 21.4012V20.3125C22.4375 20.097 22.3519 19.8903 22.1995 19.738C22.0472 19.5856 21.8405 19.5 21.625 19.5H2.9375Z" fill="#282828"/>
</svg>
