<svg width="18" height="19" viewBox="0 0 18 19" fill="none" xmlns="http://www.w3.org/2000/svg">
<path d="M16.2984 2.20152C15.9292 1.83238 15.4285 1.625 14.9064 1.625C14.3844 1.625 13.8836 1.83238 13.5144 2.20152L12.6467 3.06927L15.4307 5.85327L16.2984 4.98552C16.6676 4.61631 16.875 4.11561 16.875 3.59352C16.875 3.07143 16.6676 2.57072 16.2984 2.20152ZM14.6349 6.64902L11.8509 3.86502L5.55094 10.165C5.08808 10.6276 4.74782 11.1983 4.56094 11.8255L3.96094 13.8393C3.93197 13.9364 3.92981 14.0396 3.95469 14.1379C3.97956 14.2363 4.03055 14.326 4.10225 14.3977C4.17395 14.4694 4.26371 14.5204 4.36201 14.5453C4.46031 14.5701 4.56351 14.568 4.66069 14.539L6.67444 13.939C7.30161 13.7521 7.87231 13.4119 8.33494 12.949L14.6349 6.64902Z" fill="black"/>
<path d="M3.9375 4.4375C3.34076 4.4375 2.76847 4.67455 2.34651 5.09651C1.92455 5.51847 1.6875 6.09076 1.6875 6.6875V14.5625C1.6875 15.1592 1.92455 15.7315 2.34651 16.1535C2.76847 16.5754 3.34076 16.8125 3.9375 16.8125H11.8125C12.4092 16.8125 12.9815 16.5754 13.4035 16.1535C13.8254 15.7315 14.0625 15.1592 14.0625 14.5625V10.625C14.0625 10.4758 14.0032 10.3327 13.8977 10.2273C13.7923 10.1218 13.6492 10.0625 13.5 10.0625C13.3508 10.0625 13.2077 10.1218 13.1023 10.2273C12.9968 10.3327 12.9375 10.4758 12.9375 10.625V14.5625C12.9375 14.8609 12.819 15.147 12.608 15.358C12.397 15.569 12.1109 15.6875 11.8125 15.6875H3.9375C3.63913 15.6875 3.35298 15.569 3.142 15.358C2.93103 15.147 2.8125 14.8609 2.8125 14.5625V6.6875C2.8125 6.38913 2.93103 6.10298 3.142 5.892C3.35298 5.68103 3.63913 5.5625 3.9375 5.5625H7.875C8.02418 5.5625 8.16726 5.50324 8.27275 5.39775C8.37824 5.29226 8.4375 5.14918 8.4375 5C8.4375 4.85082 8.37824 4.70774 8.27275 4.60225C8.16726 4.49676 8.02418 4.4375 7.875 4.4375H3.9375Z" fill="black"/>
</svg>
