<svg width="20" height="20" viewBox="0 0 20 20" fill="none" xmlns="http://www.w3.org/2000/svg">
<path fill-rule="evenodd" clip-rule="evenodd" d="M3.16014 2.44834C5.42005 2.06586 7.7081 1.87408 10.0001 1.875C12.331 1.875 14.6168 2.07167 16.841 2.44834C17.2013 2.51055 17.5279 2.69834 17.763 2.9784C17.998 3.25846 18.1263 3.61271 18.1251 3.97834V4.84834C18.125 5.51132 17.8615 6.14711 17.3926 6.61584L12.241 11.7675C12.1249 11.8836 12.0329 12.0215 11.9701 12.1732C11.9073 12.3249 11.8751 12.4875 11.8751 12.6517V15.0908C11.8753 15.5552 11.7461 16.0104 11.5021 16.4055C11.258 16.8005 10.9088 17.1198 10.4935 17.3275L9.02931 18.0592C8.93402 18.1067 8.82816 18.1292 8.72177 18.1243C8.61538 18.1195 8.51199 18.0876 8.42141 18.0315C8.33083 17.9755 8.25607 17.8973 8.20422 17.8043C8.15237 17.7112 8.12515 17.6065 8.12514 17.5V12.6517C8.12485 12.3203 7.99296 12.0025 7.75848 11.7683L2.60848 6.615C2.1396 6.14627 1.87612 5.51049 1.87598 4.8475V3.97834C1.87598 3.23084 2.40848 2.57584 3.16014 2.44834Z" fill="white"/>
</svg>
