<svg width="16" height="16" viewBox="0 0 16 16" fill="none" xmlns="http://www.w3.org/2000/svg">
<path d="M13 14C13.5304 14 14.0391 13.7893 14.4142 13.4142C14.7893 13.0391 15 12.5304 15 12V9C15 8.46957 14.7893 7.96086 14.4142 7.58579C14.0391 7.21071 13.5304 7 13 7H3C2.46957 7 1.96086 7.21071 1.58579 7.58579C1.21071 7.96086 1 8.46957 1 9V12C1 12.5304 1.21071 13.0391 1.58579 13.4142C1.96086 13.7893 2.46957 14 3 14H13ZM1 6.764V4C1 3.46957 1.21071 2.96086 1.58579 2.58579C1.96086 2.21071 2.46957 2 3 2H6.586C6.98359 2.00017 7.36486 2.15819 7.646 2.43933L9.06067 3.85333C9.154 3.94733 9.28133 4 9.414 4H13C13.5304 4 14.0391 4.21071 14.4142 4.58579C14.7893 4.96086 15 5.46957 15 6V6.764C14.4506 6.27109 13.7381 5.99895 13 6H3C2.26186 5.99895 1.54945 6.27109 1 6.764Z" fill="black" fill-opacity="0.47"/>
</svg>
