<svg width="20" height="20" viewBox="0 0 20 20" fill="none" xmlns="http://www.w3.org/2000/svg">
<path d="M2 3.14286C2 2.51167 2.51167 2 3.14286 2H7.71429C8.34547 2 8.85714 2.51167 8.85714 3.14286V7.71429C8.85714 8.34547 8.34547 8.85714 7.71429 8.85714H3.14286C2.51167 8.85714 2 8.34547 2 7.71429V3.14286Z" fill="black" fill-opacity="0.47"/>
<path d="M11.1429 3.14286C11.1429 2.51167 11.6545 2 12.2857 2H16.8571C17.4883 2 18 2.51167 18 3.14286V7.71429C18 8.34547 17.4883 8.85714 16.8571 8.85714H12.2857C11.6545 8.85714 11.1429 8.34547 11.1429 7.71429V3.14286Z" fill="black" fill-opacity="0.47"/>
<path d="M2 12.2857C2 11.6545 2.51167 11.1429 3.14286 11.1429H7.71429C8.34547 11.1429 8.85714 11.6545 8.85714 12.2857V16.8571C8.85714 17.4883 8.34547 18 7.71429 18H3.14286C2.51167 18 2 17.4883 2 16.8571V12.2857Z" fill="black" fill-opacity="0.47"/>
<path d="M11.1429 12.2857C11.1429 11.6545 11.6545 11.1429 12.2857 11.1429H16.8571C17.4883 11.1429 18 11.6545 18 12.2857V16.8571C18 17.4883 17.4883 18 16.8571 18H12.2857C11.6545 18 11.1429 17.4883 11.1429 16.8571V12.2857Z" fill="black" fill-opacity="0.47"/>
</svg>
