<svg width="42" height="41" viewBox="0 0 42 41" fill="none" xmlns="http://www.w3.org/2000/svg">
<g clip-path="url(#clip0_8586_7015)">
<path d="M28.8722 8.6377C28.3752 8.6377 27.8983 8.83478 27.5463 9.18576C27.1942 9.53676 26.9957 10.0129 26.9942 10.5101V18.2938H22.6329V10.5101C22.6065 10.0306 22.3975 9.57938 22.0487 9.2492C21.6999 8.91905 21.2379 8.73508 20.7577 8.73508C20.2774 8.73508 19.8154 8.91905 19.4667 9.2492C19.1179 9.57938 18.9088 10.0306 18.8824 10.5101V18.2938H14.5211V10.5101C14.5211 10.0135 14.3238 9.53724 13.9727 9.1861C13.6216 8.83496 13.1453 8.6377 12.6487 8.6377C12.1522 8.6377 11.6759 8.83496 11.3247 9.1861C10.9736 9.53724 10.7764 10.0135 10.7764 10.5101V29.8222C10.7764 30.3188 10.9736 30.7951 11.3247 31.1461C11.6759 31.4973 12.1522 31.6946 12.6487 31.6946C13.1453 31.6946 13.6216 31.4973 13.9727 31.1461C14.3238 30.7951 14.5211 30.3188 14.5211 29.8222V22.0385H18.8824V29.8222C18.9088 30.3017 19.1179 30.7529 19.4667 31.0831C19.8154 31.4132 20.2774 31.5972 20.7577 31.5972C21.2379 31.5972 21.6999 31.4132 22.0487 31.0831C22.3975 30.7529 22.6065 30.3017 22.6329 29.8222V22.0385H28.8553C29.3514 22.037 29.8268 21.8392 30.1776 21.4884C30.5284 21.1377 30.7262 20.6623 30.7276 20.1662V10.5101C30.7277 10.0165 30.5327 9.54277 30.1853 9.19207C29.8377 8.84141 29.3659 8.64217 28.8722 8.6377ZM29.6133 20.1662C29.6133 20.3627 29.5352 20.5512 29.3963 20.6901C29.2573 20.8291 29.0688 20.9072 28.8722 20.9072H21.5185V29.8222C21.5023 30.0082 21.4168 30.1815 21.2791 30.3077C21.1415 30.434 20.9614 30.504 20.7746 30.504C20.5879 30.504 20.4078 30.434 20.2702 30.3077C20.1324 30.1815 20.047 30.0082 20.0307 29.8222V20.9072H13.3898V29.8222C13.3898 30.0187 13.3117 30.2072 13.1727 30.3462C13.0338 30.4852 12.8452 30.5632 12.6487 30.5632C12.4522 30.5632 12.2637 30.4852 12.1247 30.3462C11.9858 30.2072 11.9077 30.0187 11.9077 29.8222V10.5101C11.9077 10.3136 11.9858 10.1251 12.1247 9.98604C12.2637 9.84712 12.4522 9.76903 12.6487 9.76903C12.8452 9.76903 13.0338 9.84712 13.1727 9.98604C13.3117 10.1251 13.3898 10.3136 13.3898 10.5101V19.4251H20.0138V10.5101C20.0301 10.324 20.1154 10.1507 20.2532 10.0246C20.3909 9.89832 20.5709 9.82834 20.7577 9.82834C20.9445 9.82834 21.1245 9.89832 21.2622 10.0246C21.3998 10.1507 21.4853 10.324 21.5015 10.5101V19.4251H28.1256V10.5101C28.1418 10.324 28.2272 10.1507 28.3649 10.0246C28.5026 9.89832 28.6826 9.82834 28.8694 9.82834C29.0563 9.82834 29.2362 9.89832 29.374 10.0246C29.5116 10.1507 29.5971 10.324 29.6133 10.5101V20.1662Z" fill="#121A29"/>
<path d="M20.7546 37.5322C17.3197 37.5334 13.9616 36.5158 11.105 34.6083C8.24839 32.7007 6.02165 29.9889 4.70636 26.8157C3.39109 23.6426 3.04638 20.1506 3.71581 16.7815C4.38526 13.4124 6.03878 10.3176 8.46727 7.88826C10.8958 5.45899 13.9901 3.80446 17.359 3.13392C20.7279 2.46337 24.2199 2.80695 27.3935 4.1212C30.5671 5.43544 33.2796 7.66131 35.1881 10.5173C37.0966 13.3733 38.1152 16.7311 38.1152 20.166C38.1107 24.7695 36.2804 29.1832 33.0258 32.4388C29.7712 35.6945 25.3581 37.5262 20.7546 37.5322ZM20.7546 3.93116C17.5435 3.93004 14.4041 4.88125 11.7335 6.66447C9.06299 8.44771 6.98125 10.9828 5.7516 13.9493C4.52195 16.9157 4.19964 20.1802 4.82543 23.3298C5.45121 26.4794 6.99699 29.3727 9.26724 31.6438C11.5375 33.9149 14.4303 35.4616 17.5797 36.0884C20.7291 36.7154 23.9936 36.3942 26.9605 35.1656C29.9274 33.937 32.4633 31.8561 34.2474 29.1862C36.0315 26.5163 36.9839 23.3772 36.9839 20.166C36.9794 15.8626 35.2683 11.7366 32.2259 8.6932C29.1834 5.6497 25.058 3.93715 20.7546 3.93116Z" fill="#121A29"/>
<path d="M20.7551 40.3326C16.7666 40.3326 12.8677 39.1499 9.55137 36.9339C6.23504 34.718 3.65028 31.5685 2.12395 27.8836C0.597605 24.1987 0.198245 20.144 0.976366 16.2321C1.75449 12.3202 3.67514 8.72688 6.49544 5.90657C9.31575 3.08627 12.9091 1.16562 16.821 0.387499C20.7328 -0.390622 24.7875 0.00873786 28.4725 1.53508C32.1573 3.06141 35.3069 5.64618 37.5228 8.96251C39.7387 12.2788 40.9214 16.1777 40.9214 20.1663C40.914 25.5124 38.7869 30.6375 35.0067 34.4178C31.2264 38.1981 26.1013 40.3251 20.7551 40.3326ZM20.7551 1.13136C16.9904 1.13136 13.3102 2.24773 10.1799 4.33933C7.04964 6.43091 4.60988 9.40376 3.16917 12.8819C1.72847 16.3601 1.35151 20.1874 2.08598 23.8798C2.82044 27.5722 4.63335 30.964 7.29543 33.626C9.95751 36.2882 13.3492 38.101 17.0416 38.8355C20.7341 39.57 24.5614 39.193 28.0395 37.7523C31.5176 36.3116 34.4905 33.8718 36.5821 30.7415C38.6737 27.6112 39.7901 23.931 39.7901 20.1663C39.7841 15.1198 37.7767 10.2817 34.2083 6.71318C30.6399 3.14473 25.8017 1.13735 20.7551 1.13136Z" fill="#121A29"/>
</g>
<defs>
<clipPath id="clip0_8586_7015">
<rect width="41" height="41" fill="white" transform="translate(0.588867)"/>
</clipPath>
</defs>
</svg>
