<svg width="27" height="26" viewBox="0 0 27 26" fill="none" xmlns="http://www.w3.org/2000/svg">
<path d="M6.59375 4.0625C5.83954 4.0625 5.11622 4.36211 4.58292 4.89542C4.04961 5.42872 3.75 6.15204 3.75 6.90625C3.75 7.66046 4.04961 8.38378 4.58292 8.91709C5.11622 9.45039 5.83954 9.75 6.59375 9.75H20.4062C21.1605 9.75 21.8838 9.45039 22.4171 8.91709C22.9504 8.38378 23.25 7.66046 23.25 6.90625C23.25 6.15204 22.9504 5.42872 22.4171 4.89542C21.8838 4.36211 21.1605 4.0625 20.4062 4.0625H6.59375ZM4.5625 12.1875C4.34701 12.1875 4.14035 12.2731 3.98798 12.4255C3.8356 12.5778 3.75 12.7845 3.75 13C3.75 13.2155 3.8356 13.4222 3.98798 13.5745C4.14035 13.7269 4.34701 13.8125 4.5625 13.8125H22.4375C22.653 13.8125 22.8597 13.7269 23.012 13.5745C23.1644 13.4222 23.25 13.2155 23.25 13C23.25 12.7845 23.1644 12.5778 23.012 12.4255C22.8597 12.2731 22.653 12.1875 22.4375 12.1875H4.5625ZM3.75 17.0625C3.75 16.847 3.8356 16.6404 3.98798 16.488C4.14035 16.3356 4.34701 16.25 4.5625 16.25H22.4375C22.653 16.25 22.8597 16.3356 23.012 16.488C23.1644 16.6404 23.25 16.847 23.25 17.0625C23.25 17.278 23.1644 17.4847 23.012 17.637C22.8597 17.7894 22.653 17.875 22.4375 17.875H4.5625C4.34701 17.875 4.14035 17.7894 3.98798 17.637C3.8356 17.4847 3.75 17.278 3.75 17.0625ZM4.5625 20.3125C4.34701 20.3125 4.14035 20.3981 3.98798 20.5505C3.8356 20.7028 3.75 20.9095 3.75 21.125C3.75 21.3405 3.8356 21.5472 3.98798 21.6995C4.14035 21.8519 4.34701 21.9375 4.5625 21.9375H22.4375C22.653 21.9375 22.8597 21.8519 23.012 21.6995C23.1644 21.5472 23.25 21.3405 23.25 21.125C23.25 20.9095 23.1644 20.7028 23.012 20.5505C22.8597 20.3981 22.653 20.3125 22.4375 20.3125H4.5625Z" fill="#282828"/>
</svg>
