<svg width="20" height="20" viewBox="0 0 20 20" fill="none" xmlns="http://www.w3.org/2000/svg">
<path d="M9.55837 3.20093C9.67556 3.08389 9.83441 3.01814 10 3.01814C10.1657 3.01814 10.3245 3.08389 10.4417 3.20093L17.6834 10.4426C17.7411 10.5023 17.81 10.5498 17.8863 10.5826C17.9626 10.6153 18.0446 10.6325 18.1276 10.6332C18.2106 10.6338 18.2929 10.618 18.3697 10.5865C18.4465 10.5551 18.5162 10.5086 18.5749 10.4499C18.6335 10.3912 18.6799 10.3214 18.7113 10.2446C18.7427 10.1678 18.7585 10.0854 18.7577 10.0025C18.7569 9.91948 18.7397 9.83747 18.7069 9.76123C18.6741 9.685 18.6264 9.61606 18.5667 9.55843L11.3259 2.31676C11.1518 2.14265 10.9451 2.00454 10.7176 1.91031C10.4901 1.81608 10.2463 1.76758 10 1.76758C9.7538 1.76758 9.50998 1.81608 9.2825 1.91031C9.05501 2.00454 8.84831 2.14265 8.6742 2.31676L1.43253 9.55843C1.37287 9.61611 1.32529 9.6851 1.29257 9.76137C1.25985 9.83763 1.24265 9.91965 1.24196 10.0026C1.24128 10.0856 1.25714 10.1679 1.2886 10.2447C1.32006 10.3215 1.3665 10.3913 1.42521 10.4499C1.48392 10.5086 1.55372 10.555 1.63055 10.5863C1.70737 10.6177 1.78968 10.6335 1.87267 10.6327C1.95565 10.632 2.03766 10.6147 2.11389 10.5819C2.19013 10.5491 2.25907 10.5015 2.3167 10.4418L9.55837 3.20093Z" fill="#282828"/>
<path d="M10 4.52637L16.7992 11.3255C16.8242 11.3505 16.8492 11.3739 16.875 11.3972V16.5622C16.875 17.4247 16.175 18.1247 15.3125 18.1247H12.5C12.3342 18.1247 12.1753 18.0589 12.0581 17.9416C11.9408 17.8244 11.875 17.6655 11.875 17.4997V13.7497C11.875 13.5839 11.8092 13.425 11.6919 13.3078C11.5747 13.1905 11.4158 13.1247 11.25 13.1247H8.75C8.58424 13.1247 8.42527 13.1905 8.30806 13.3078C8.19085 13.425 8.125 13.5839 8.125 13.7497V17.4997C8.125 17.6655 8.05915 17.8244 7.94194 17.9416C7.82473 18.0589 7.66576 18.1247 7.5 18.1247H4.6875C4.2731 18.1247 3.87567 17.9601 3.58265 17.6671C3.28962 17.374 3.125 16.9766 3.125 16.5622V11.3972C3.15093 11.374 3.17621 11.3501 3.20083 11.3255L10 4.52637Z" fill="#282828"/>
</svg>
