<svg width="142" height="46" viewBox="0 0 142 46" fill="none" xmlns="http://www.w3.org/2000/svg">
<g clip-path="url(#clip0_8624_8382)">
<mask id="mask0_8624_8382" style="mask-type:alpha" maskUnits="userSpaceOnUse" x="0" y="0" width="46" height="46">
<path d="M0 9.08281C0 4.06651 4.06651 0 9.08281 0H36.9172C41.9335 0 46 4.06651 46 9.08281V36.9172C46 41.9335 41.9335 46 36.9172 46H9.08281C4.06651 46 0 41.9335 0 36.9172V9.08281Z" fill="#FFCF00"/>
</mask>
<g mask="url(#mask0_8624_8382)">
<path d="M0.00134277 9.08281C0.00134277 4.06651 4.06785 0 9.08415 0H36.9185C41.9349 0 46.0013 4.06651 46.0013 9.08281V36.9172C46.0013 41.9335 41.9349 46 36.9185 46H9.08415C4.06785 46 0.00134277 41.9335 0.00134277 36.9172V9.08281Z" fill="#FFD900"/>
<path d="M30.4283 31.2641C28.8197 31.2641 27.4346 30.9737 26.2729 30.3928C25.1112 29.797 24.2175 28.9853 23.592 27.9576C22.9664 26.9299 22.6537 25.7385 22.6537 24.3831C22.6537 23.0129 22.8919 21.7618 23.3686 20.6299C23.8452 19.483 24.5154 18.4926 25.3793 17.6585C26.2431 16.8096 27.2707 16.1542 28.4623 15.6925C29.6687 15.2308 30.9868 15 32.4166 15C34.0251 15 35.4102 15.2979 36.5719 15.8936C37.7337 16.4745 38.6273 17.2787 39.2529 18.3064C39.8784 19.3341 40.1912 20.5256 40.1912 21.8809C40.1912 23.2512 39.9529 24.5097 39.4762 25.6565C38.9997 26.7885 38.3295 27.7789 37.4656 28.6278C36.6017 29.4619 35.5666 30.1098 34.3602 30.5715C33.1687 31.0332 31.8581 31.2641 30.4283 31.2641ZM30.8081 27.6002C31.5825 27.6002 32.2676 27.4587 32.8634 27.1757C33.4741 26.8927 33.9879 26.498 34.4049 25.9916C34.8369 25.4704 35.1645 24.8821 35.3879 24.2267C35.6113 23.5714 35.723 22.8788 35.723 22.149C35.723 21.449 35.5741 20.8384 35.2762 20.3171C34.9932 19.7958 34.5762 19.3937 34.0251 19.1107C33.4889 18.8128 32.8262 18.6639 32.0368 18.6639C31.2772 18.6639 30.5921 18.8054 29.9814 19.0883C29.3708 19.3713 28.8495 19.7735 28.4176 20.2947C28.0005 20.8011 27.6803 21.382 27.4569 22.0373C27.2335 22.6927 27.1218 23.3852 27.1218 24.115C27.1218 24.8001 27.2633 25.4108 27.5463 25.947C27.8442 26.4682 28.2612 26.8778 28.7974 27.1757C29.3484 27.4587 30.0187 27.6002 30.8081 27.6002Z" fill="#010E13"/>
<path d="M13.7715 31.2641C12.1928 31.2641 10.8077 30.9737 9.61613 30.3928C8.43951 29.8119 7.52358 29.0077 6.86823 27.98C6.22781 26.9374 5.90759 25.7385 5.90759 24.3831C5.90759 23.0278 6.1459 21.7767 6.62247 20.6299C7.09908 19.483 7.77676 18.4926 8.65549 17.6585C9.53422 16.8096 10.5768 16.1542 11.7832 15.6925C13.0045 15.2308 14.3598 15 15.8492 15C17.4131 15 18.761 15.2457 19.8929 15.7373C21.0397 16.2287 21.9632 16.9436 22.6632 17.882L19.4908 20.3841C18.9695 19.7437 18.4035 19.2968 17.7929 19.0437C17.1822 18.7905 16.4673 18.6639 15.6482 18.6639C14.8439 18.6639 14.1141 18.7979 13.4587 19.066C12.8183 19.3341 12.2672 19.7139 11.8056 20.2054C11.3438 20.6969 10.9864 21.2777 10.7332 21.948C10.4949 22.6033 10.3757 23.3182 10.3757 24.0927C10.3757 24.7927 10.5321 25.4108 10.8449 25.947C11.1577 26.4682 11.6119 26.8778 12.2077 27.1757C12.8034 27.4587 13.5258 27.6002 14.3747 27.6002C15.0599 27.6002 15.7151 27.4885 16.3407 27.2651C16.9811 27.0416 17.6216 26.6693 18.262 26.148L19.9376 29.3875C19.1333 29.9832 18.2025 30.4449 17.145 30.7726C16.0875 31.1002 14.963 31.2641 13.7715 31.2641ZM16.162 28.6949L17.346 22.7969H21.2557L19.9376 29.3875L16.162 28.6949Z" fill="#010E13"/>
</g>
</g>
<path d="M61.0806 31.7121C59.4583 31.7121 58.0351 31.4137 56.8107 30.8168C55.6017 30.22 54.6605 29.3935 53.9871 28.3376C53.329 27.2663 53 26.0343 53 24.6416C53 23.2489 53.2449 21.9634 53.7346 20.785C54.2243 19.6065 54.9207 18.5888 55.8236 17.7318C56.7266 16.8595 57.7978 16.1861 59.0375 15.7116C60.2924 15.2372 61.6851 15 63.2155 15C64.8225 15 66.2075 15.2525 67.3706 15.7576C68.549 16.2626 69.4979 16.9972 70.2172 17.9614L66.9574 20.5324C66.4217 19.8744 65.8402 19.4152 65.2127 19.1551C64.5852 18.8949 63.8506 18.7648 63.0089 18.7648C62.1825 18.7648 61.4326 18.9026 60.7592 19.178C60.1011 19.4535 59.5349 19.8438 59.0604 20.3488C58.586 20.8538 58.2187 21.4507 57.9585 22.1394C57.7137 22.8128 57.5912 23.5474 57.5912 24.3432C57.5912 25.0625 57.7519 25.6976 58.0733 26.2485C58.3947 26.7842 58.8615 27.2051 59.4737 27.5111C60.0858 27.8019 60.8281 27.9473 61.7004 27.9473C62.4044 27.9473 63.0778 27.8325 63.7206 27.603C64.3786 27.3734 65.0367 26.9908 65.6948 26.4552L67.4165 29.7838C66.5901 30.396 65.6336 30.8704 64.547 31.2071C63.4604 31.5438 62.3049 31.7121 61.0806 31.7121ZM63.5369 29.0722L64.7536 23.0117H68.7709L67.4165 29.7838L63.5369 29.0722Z" fill="#141414"/>
<path d="M78.1952 31.7121C76.5423 31.7121 75.119 31.4137 73.9253 30.8168C72.7316 30.2047 71.8133 29.3706 71.1706 28.3146C70.5278 27.2586 70.2064 26.0343 70.2064 24.6416C70.2064 23.2336 70.4513 21.9481 70.941 20.785C71.4307 19.6065 72.1194 18.5888 73.0071 17.7318C73.8947 16.8595 74.9507 16.1861 76.175 15.7116C77.4147 15.2372 78.7691 15 80.2383 15C81.8911 15 83.3144 15.3061 84.5081 15.9182C85.7019 16.5151 86.6201 17.3415 87.2629 18.3975C87.9056 19.4535 88.227 20.6778 88.227 22.0705C88.227 23.4785 87.9822 24.7717 87.4924 25.9501C87.0027 27.1132 86.314 28.131 85.4264 29.0033C84.5387 29.8603 83.4751 30.5261 82.2355 31.0005C81.0111 31.4749 79.6644 31.7121 78.1952 31.7121ZM78.5854 27.9473C79.3812 27.9473 80.0852 27.8019 80.6974 27.5111C81.3249 27.2204 81.8529 26.8148 82.2814 26.2945C82.7252 25.7588 83.0619 25.1543 83.2914 24.4809C83.521 23.8075 83.6358 23.0959 83.6358 22.346C83.6358 21.6267 83.4827 20.9992 83.1767 20.4636C82.8859 19.9279 82.4574 19.5147 81.8911 19.2239C81.3402 18.9179 80.6591 18.7648 79.848 18.7648C79.0675 18.7648 78.3635 18.9102 77.736 19.201C77.1086 19.4918 76.5729 19.905 76.1291 20.4406C75.7006 20.961 75.3716 21.5578 75.142 22.2312C74.9124 22.9046 74.7976 23.6162 74.7976 24.3661C74.7976 25.0701 74.943 25.6976 75.2338 26.2485C75.5399 26.7842 75.9684 27.2051 76.5194 27.5111C77.0856 27.8019 77.7743 27.9473 78.5854 27.9473Z" fill="#141414"/>
<path d="M91.6461 31.3907L94.1483 18.9255H89.2127L89.9473 15.3214H104.341L103.606 18.9255H98.6936L96.1914 31.3907H91.6461Z" fill="#141414"/>
<path d="M99.6259 31.3907L109.933 15.3214H114.41L118.289 31.3907H113.767L110.897 17.4793H112.688L104.424 31.3907H99.6259ZM104.125 28.2687L105.962 24.9171H113.813L114.318 28.2687H104.125Z" fill="#141414"/>
<path d="M116.592 31.3907L125.453 21.7491L124.925 24.3661L120.127 15.3214H124.971L128.047 21.3589H126.05L131.398 15.3214H136.541L128.23 24.412L128.391 21.841L133.579 31.3907H128.667L125.453 25.0319L127.519 25.0778L122.032 31.3907H116.592Z" fill="#141414"/>
<path d="M134.241 31.3907L137.455 15.3214H142L138.786 31.3907H134.241Z" fill="#141414"/>
<defs>
<clipPath id="clip0_8624_8382">
<rect width="46" height="46" fill="white"/>
</clipPath>
</defs>
</svg>
