<svg width="44" height="44" viewBox="0 0 44 44" fill="none" xmlns="http://www.w3.org/2000/svg">
<g clip-path="url(#clip0_9314_2987)">
<mask id="mask0_9314_2987" style="mask-type:alpha" maskUnits="userSpaceOnUse" x="0" y="0" width="44" height="44">
<path d="M0 8.68791C0 3.8897 3.8897 0 8.68791 0H35.3121C40.1103 0 44 3.8897 44 8.68791V35.3121C44 40.1103 40.1103 44 35.3121 44H8.68791C3.8897 44 0 40.1103 0 35.3121V8.68791Z" fill="#FFCF00"/>
</mask>
<g mask="url(#mask0_9314_2987)">
<path d="M0 8.68791C0 3.8897 3.8897 0 8.68791 0H35.3121C40.1103 0 44 3.8897 44 8.68791V35.3121C44 40.1103 40.1103 44 35.3121 44H8.68791C3.8897 44 0 40.1103 0 35.3121V8.68791Z" fill="#FFD900"/>
<path d="M29.104 29.9046C27.5654 29.9046 26.2405 29.6268 25.1293 29.0712C24.0181 28.5013 23.1633 27.7249 22.565 26.7419C21.9666 25.7589 21.6675 24.6192 21.6675 23.3228C21.6675 22.0122 21.8954 20.8154 22.3513 19.7327C22.8072 18.6358 23.4482 17.6884 24.2745 16.8906C25.1008 16.0786 26.0838 15.4517 27.2235 15.0101C28.3775 14.5685 29.6383 14.3477 31.0059 14.3477C32.5445 14.3477 33.8694 14.6326 34.9806 15.2024C36.0918 15.758 36.9466 16.5273 37.5449 17.5103C38.1433 18.4933 38.4425 19.633 38.4425 20.9294C38.4425 22.2401 38.2145 23.4439 37.7586 24.5409C37.3028 25.6236 36.6617 26.5709 35.8354 27.383C35.0091 28.1808 34.019 28.8005 32.8651 29.2421C31.7253 29.6837 30.4717 29.9046 29.104 29.9046ZM29.4673 26.4C30.2081 26.4 30.8634 26.2647 31.4333 25.994C32.0174 25.7233 32.5089 25.3458 32.9078 24.8614C33.3209 24.3628 33.6343 23.8001 33.848 23.1732C34.0617 22.5464 34.1686 21.8839 34.1686 21.1859C34.1686 20.5163 34.0261 19.9322 33.7412 19.4336C33.4705 18.9349 33.0716 18.5503 32.5445 18.2796C32.0316 17.9947 31.3977 17.8522 30.6426 17.8522C29.9161 17.8522 29.2607 17.9876 28.6766 18.2582C28.0925 18.5289 27.5939 18.9136 27.1808 19.4122C26.7819 19.8966 26.4756 20.4522 26.2619 21.079C26.0482 21.7059 25.9413 22.3683 25.9413 23.0664C25.9413 23.7217 26.0767 24.3058 26.3474 24.8187C26.6323 25.3173 27.0312 25.7091 27.544 25.994C28.0711 26.2647 28.7123 26.4 29.4673 26.4Z" fill="#010E13"/>
<path d="M13.1714 29.9046C11.6614 29.9046 10.3364 29.6268 9.19671 29.0712C8.07125 28.5156 7.19514 27.7463 6.56829 26.7633C5.95571 25.766 5.64941 24.6192 5.64941 23.3228C5.64941 22.0264 5.87736 20.8297 6.33321 19.7327C6.7891 18.6358 7.43731 17.6884 8.27784 16.8906C9.11837 16.0786 10.1156 15.4517 11.2695 15.0101C12.4378 14.5685 13.7342 14.3477 15.1588 14.3477C16.6547 14.3477 17.944 14.5827 19.0267 15.0529C20.1236 15.523 21.0069 16.2068 21.6765 17.1043L18.642 19.4977C18.1434 18.8851 17.602 18.4577 17.0179 18.2155C16.4338 17.9733 15.75 17.8522 14.9665 17.8522C14.1972 17.8522 13.4991 17.9804 12.8722 18.2369C12.2597 18.4933 11.7326 18.8566 11.2909 19.3267C10.8493 19.7969 10.5074 20.3525 10.2652 20.9935C10.0372 21.6204 9.92327 22.3042 9.92327 23.045C9.92327 23.7146 10.0729 24.3058 10.372 24.8187C10.6712 25.3173 11.1057 25.7091 11.6756 25.994C12.2454 26.2647 12.9364 26.4 13.7484 26.4C14.4037 26.4 15.0306 26.2931 15.6289 26.0795C16.2415 25.8657 16.8541 25.5096 17.4667 25.011L19.0694 28.1096C18.3001 28.6794 17.4097 29.121 16.3982 29.4344C15.3867 29.7479 14.3111 29.9046 13.1714 29.9046ZM15.458 27.4471L16.5905 21.8056H20.3302L19.0694 28.1096L15.458 27.4471Z" fill="#010E13"/>
</g>
</g>
<defs>
<clipPath id="clip0_9314_2987">
<rect width="44" height="44" fill="white"/>
</clipPath>
</defs>
</svg>
