<svg width="20" height="20" viewBox="0 0 20 20" fill="none" xmlns="http://www.w3.org/2000/svg">
<path fill-rule="evenodd" clip-rule="evenodd" d="M10.6854 17.6832C12.9052 15.4866 16.7276 11.7084 16.7276 8.36357C16.7276 4.74916 13.7966 1.81812 10.1822 1.81812C6.56776 1.81812 3.63672 4.74916 3.63672 8.36357C3.63672 11.7025 7.1907 15.2193 9.60921 17.6134L10.1822 18.1818L10.6854 17.6832ZM10.1822 11.3388C11.8255 11.3388 13.1574 10.0069 13.1574 8.36357C13.1574 6.72023 11.8255 5.38836 10.1822 5.38836C8.53884 5.38836 7.20697 6.72023 7.20697 8.36357C7.20697 9.3584 7.69509 10.2393 8.4447 10.7798C8.93398 11.1319 9.53367 11.3388 10.1822 11.3388Z" />
</svg>
