<svg width="20" height="20" viewBox="0 0 20 20" fill="none" xmlns="http://www.w3.org/2000/svg">
<path fill-rule="evenodd" clip-rule="evenodd" d="M4.00333 18.0367C4.33225 18.0958 4.6658 18.1254 5 18.125C6.05622 18.1264 7.09132 17.8292 7.98583 17.2675C8.63083 17.4192 9.30583 17.5 10 17.5C14.435 17.5 18.125 14.1917 18.125 10C18.125 5.80833 14.435 2.5 10 2.5C5.565 2.5 1.875 5.80833 1.875 10C1.875 12.0075 2.72917 13.8225 4.10333 15.16C4.29667 15.3483 4.33417 15.5167 4.315 15.6125C4.21201 16.1309 3.97855 16.6145 3.63667 17.0175C3.56569 17.1013 3.51805 17.2023 3.49852 17.3104C3.479 17.4184 3.4883 17.5297 3.52547 17.633C3.56265 17.7364 3.62639 17.8281 3.71028 17.8989C3.79417 17.9698 3.89524 18.0173 4.00333 18.0367ZM6.875 9.0625C6.62636 9.0625 6.3879 9.16127 6.21209 9.33709C6.03627 9.5129 5.9375 9.75136 5.9375 10C5.9375 10.2486 6.03627 10.4871 6.21209 10.6629C6.3879 10.8387 6.62636 10.9375 6.875 10.9375C7.12364 10.9375 7.3621 10.8387 7.53791 10.6629C7.71373 10.4871 7.8125 10.2486 7.8125 10C7.8125 9.75136 7.71373 9.5129 7.53791 9.33709C7.3621 9.16127 7.12364 9.0625 6.875 9.0625ZM9.0625 10C9.0625 9.75136 9.16127 9.5129 9.33709 9.33709C9.5129 9.16127 9.75136 9.0625 10 9.0625C10.2486 9.0625 10.4871 9.16127 10.6629 9.33709C10.8387 9.5129 10.9375 9.75136 10.9375 10C10.9375 10.2486 10.8387 10.4871 10.6629 10.6629C10.4871 10.8387 10.2486 10.9375 10 10.9375C9.75136 10.9375 9.5129 10.8387 9.33709 10.6629C9.16127 10.4871 9.0625 10.2486 9.0625 10ZM13.125 9.0625C12.8764 9.0625 12.6379 9.16127 12.4621 9.33709C12.2863 9.5129 12.1875 9.75136 12.1875 10C12.1875 10.2486 12.2863 10.4871 12.4621 10.6629C12.6379 10.8387 12.8764 10.9375 13.125 10.9375C13.3736 10.9375 13.6121 10.8387 13.7879 10.6629C13.9637 10.4871 14.0625 10.2486 14.0625 10C14.0625 9.75136 13.9637 9.5129 13.7879 9.33709C13.6121 9.16127 13.3736 9.0625 13.125 9.0625Z" fill="black"/>
</svg>
