<svg width="18" height="19" viewBox="0 0 18 19" fill="none" xmlns="http://www.w3.org/2000/svg">
<path fill-rule="evenodd" clip-rule="evenodd" d="M5.62532 5C5.62532 4.10489 5.9809 3.24645 6.61383 2.61351C7.24677 1.98058 8.10521 1.625 9.00032 1.625C9.89542 1.625 10.7539 1.98058 11.3868 2.61351C12.0197 3.24645 12.3753 4.10489 12.3753 5C12.3753 5.89511 12.0197 6.75355 11.3868 7.38649C10.7539 8.01942 9.89542 8.375 9.00032 8.375C8.10521 8.375 7.24677 8.01942 6.61383 7.38649C5.9809 6.75355 5.62532 5.89511 5.62532 5ZM2.81357 15.5787C2.83886 13.9546 3.5018 12.4055 4.65929 11.2659C5.81678 10.1263 7.37597 9.48759 9.00032 9.48759C10.6247 9.48759 12.1839 10.1263 13.3413 11.2659C14.4988 12.4055 15.1618 13.9546 15.1871 15.5787C15.189 15.6881 15.1591 15.7956 15.1008 15.8882C15.0426 15.9808 14.9587 16.0544 14.8593 16.1C13.0212 16.9428 11.0224 17.3777 9.00032 17.375C6.91082 17.375 4.92557 16.919 3.14132 16.1C3.04193 16.0544 2.958 15.9808 2.89979 15.8882C2.84158 15.7956 2.81162 15.6881 2.81357 15.5787Z" fill="black"/>
</svg>
