<svg width="26" height="27" viewBox="0 0 26 27" fill="none" xmlns="http://www.w3.org/2000/svg">
<path d="M17.8591 17.2749L17.567 17.6256L17.8898 17.9484L22.9706 23.0292L22.9769 23.0354L22.9833 23.0414C23.014 23.07 23.0386 23.1045 23.0557 23.1429C23.0728 23.1812 23.082 23.2226 23.0827 23.2646C23.0835 23.3065 23.0757 23.3482 23.06 23.3871C23.0443 23.426 23.0209 23.4614 22.9912 23.491C22.9616 23.5207 22.9262 23.5441 22.8873 23.5598C22.8484 23.5755 22.8067 23.5833 22.7648 23.5825C22.7228 23.5818 22.6814 23.5726 22.6431 23.5555C22.6047 23.5384 22.5702 23.5138 22.5416 23.4831L22.5356 23.4766L22.5294 23.4704L17.4486 18.3896L17.1258 18.0668L16.775 18.3589C15.5428 19.3852 14.0437 20.0392 12.4533 20.2441C10.8628 20.449 9.24693 20.1965 7.79485 19.5161C6.34277 18.8356 5.11467 17.7555 4.2544 16.4022C3.39413 15.0489 2.93732 13.4784 2.9375 11.8749C2.93768 10.5198 3.2642 9.18481 3.88944 7.98267C4.51469 6.78053 5.42026 5.74666 6.52956 4.96851C7.63886 4.19036 8.91926 3.69082 10.2624 3.51215C11.6056 3.33348 12.9721 3.48093 14.2462 3.94204C15.5204 4.40314 16.6647 5.16433 17.5825 6.16121C18.5002 7.1581 19.1644 8.36136 19.5188 9.66921C19.8732 10.9771 19.9074 12.351 19.6185 13.6749C19.3296 14.9987 18.7261 16.2336 17.8591 17.2749ZM11.375 4.0623C10.349 4.0623 9.33314 4.26437 8.38528 4.65699C7.43743 5.0496 6.57619 5.62507 5.85073 6.35053C5.12527 7.07598 4.54981 7.93723 4.15719 8.88508C3.76458 9.83294 3.5625 10.8488 3.5625 11.8748C3.5625 12.9008 3.76458 13.9167 4.15719 14.8645C4.54981 15.8124 5.12527 16.6736 5.85073 17.3991C6.57619 18.1245 7.43743 18.7 8.38529 19.0926C9.33314 19.4852 10.349 19.6873 11.375 19.6873C13.447 19.6873 15.4341 18.8642 16.8993 17.3991C18.3644 15.9339 19.1875 13.9468 19.1875 11.8748C19.1875 9.80279 18.3644 7.81565 16.8993 6.35053C15.4341 4.8854 13.447 4.0623 11.375 4.0623Z" fill="white" stroke="#141414"/>
</svg>
