<svg width="43" height="41" viewBox="0 0 43 41" fill="none" xmlns="http://www.w3.org/2000/svg">
<g clip-path="url(#clip0_8586_7021)">
<path d="M41.5916 19.7589H39.7542L41.0681 18.4571C41.1966 18.3297 41.2688 18.157 41.2688 17.9769C41.2688 17.7968 41.1966 17.6241 41.0681 17.4968C40.9396 17.3695 40.7652 17.2979 40.5835 17.2979C40.4017 17.2979 40.2274 17.3695 40.0989 17.4968L37.8115 19.7589H35.5557L37.5936 17.7397C37.662 17.6776 37.717 17.6026 37.7552 17.5188C37.7935 17.4352 37.8142 17.3447 37.8162 17.2528C37.8183 17.1609 37.8014 17.0697 37.7668 16.9844C37.7322 16.8992 37.6806 16.8218 37.615 16.7569C37.5494 16.692 37.4711 16.6409 37.385 16.6068C37.299 16.5726 37.2068 16.5561 37.1141 16.5581C37.0214 16.5603 36.9301 16.581 36.8457 16.6191C36.7613 16.657 36.6855 16.7116 36.623 16.7794L33.6158 19.7589H30.7557L28.0154 15.0589L30.5856 12.5139H34.8403C35.0167 12.5059 35.1833 12.4308 35.3053 12.3043C35.4273 12.1777 35.4954 12.0095 35.4954 11.8345C35.4954 11.6594 35.4273 11.4911 35.3053 11.3646C35.1833 11.2381 35.0167 11.1629 34.8403 11.1549H31.9558L33.5538 9.57164H36.783C36.9595 9.56361 37.126 9.48852 37.2481 9.36197C37.3701 9.23543 37.4381 9.06715 37.4381 8.89215C37.4381 8.71715 37.3701 8.54887 37.2481 8.42233C37.126 8.29577 36.9595 8.22069 36.783 8.21266H34.9269L36.2249 6.92658C36.3442 6.79724 36.4084 6.62733 36.4044 6.45221C36.4002 6.27709 36.3282 6.11027 36.2031 5.9865C36.078 5.86274 35.9095 5.79155 35.7327 5.78779C35.556 5.78403 35.3846 5.84797 35.2543 5.9663L33.9562 7.25238V5.41185C33.9604 5.31999 33.9458 5.22824 33.9133 5.14213C33.8808 5.05602 33.831 4.97735 33.7668 4.91085C33.7028 4.84436 33.6257 4.79145 33.5404 4.75529C33.4551 4.71912 33.3632 4.70048 33.2704 4.70048C33.1776 4.70048 33.0857 4.71912 33.0004 4.75529C32.915 4.79145 32.838 4.84436 32.774 4.91085C32.7098 4.97735 32.6601 5.05602 32.6274 5.14213C32.5949 5.22824 32.5804 5.31999 32.5846 5.41185V8.61136L30.9894 10.1933V7.33526C30.9937 7.24341 30.9791 7.15166 30.9466 7.06555C30.914 6.97944 30.8642 6.90077 30.8001 6.83427C30.7359 6.76778 30.6589 6.71486 30.5736 6.6787C30.4882 6.64254 30.3964 6.6239 30.3036 6.6239C30.2108 6.6239 30.1189 6.64254 30.0336 6.6787C29.9483 6.71486 29.8713 6.76778 29.8072 6.83427C29.7431 6.90077 29.6932 6.97944 29.6607 7.06555C29.6282 7.15166 29.6136 7.24341 29.6178 7.33526V11.5493L27.3101 13.8357L26.3987 12.271H22.3055V8.54848L25.3126 5.56904C25.4318 5.4397 25.4962 5.26979 25.492 5.09467C25.488 4.91955 25.4159 4.75273 25.2908 4.62896C25.1657 4.5052 24.9972 4.43401 24.8205 4.43025C24.6437 4.42649 24.4723 4.49043 24.3419 4.60876L22.3055 6.62649V4.39155L24.5886 2.12946C24.7078 2.00013 24.7721 1.83021 24.768 1.65509C24.764 1.47997 24.6919 1.31315 24.5667 1.18939C24.4417 1.06562 24.2732 0.994445 24.0965 0.990677C23.9197 0.986909 23.7483 1.05085 23.6179 1.16918L22.3055 2.46956V0.64903C22.2974 0.47421 22.2216 0.309206 22.0938 0.188329C21.9661 0.0674509 21.7963 0 21.6196 0C21.443 0 21.2732 0.0674509 21.1455 0.188329C21.0177 0.309206 20.9419 0.47421 20.9339 0.64903V2.46956L19.6199 1.16918C19.4895 1.05085 19.3181 0.986909 19.1414 0.990677C18.9647 0.994445 18.7962 1.06562 18.6711 1.18939C18.546 1.31315 18.4738 1.47997 18.4698 1.65509C18.4658 1.83021 18.53 2.00013 18.6493 2.12946L20.9367 4.39155V6.62935L18.8988 4.61161C18.7703 4.48428 18.5959 4.41273 18.4141 4.41273C18.2324 4.41273 18.058 4.48428 17.9296 4.61161C17.8011 4.73896 17.7289 4.91166 17.7289 5.09175C17.7289 5.27184 17.8011 5.44456 17.9296 5.57189L20.9367 8.54848V12.2738H16.8421L15.9305 13.8357L13.6229 11.5493V7.33956C13.6272 7.2477 13.6126 7.15594 13.58 7.06983C13.5475 6.98373 13.4976 6.90505 13.4336 6.83856C13.3694 6.77207 13.2924 6.71915 13.2071 6.68299C13.1217 6.64683 13.0299 6.62819 12.9371 6.62819C12.8443 6.62819 12.7525 6.64683 12.6671 6.68299C12.5818 6.71915 12.5048 6.77207 12.4406 6.83856C12.3766 6.90505 12.3267 6.98373 12.2942 7.06983C12.2616 7.15594 12.247 7.2477 12.2513 7.33956V10.1975L10.6532 8.61564V5.41185C10.6575 5.31999 10.6429 5.22824 10.6104 5.14213C10.5779 5.05602 10.528 4.97735 10.4639 4.91085C10.3998 4.84436 10.3228 4.79145 10.2374 4.75529C10.1521 4.71912 10.0603 4.70048 9.96745 4.70048C9.87465 4.70048 9.78281 4.71912 9.69748 4.75529C9.61215 4.79145 9.5351 4.84436 9.471 4.91085C9.4069 4.97735 9.35708 5.05602 9.32452 5.14213C9.29198 5.22824 9.2774 5.31999 9.28164 5.41185V7.25238L7.98359 5.9663C7.85507 5.83896 7.68075 5.76741 7.49899 5.76741C7.31723 5.76741 7.1429 5.83896 7.01438 5.9663C6.88586 6.09363 6.81365 6.26635 6.81365 6.44644C6.81365 6.62653 6.88586 6.79923 7.01438 6.92658L8.31243 8.21266H6.45333C6.36062 8.20845 6.26801 8.2229 6.1811 8.25515C6.09419 8.2874 6.01479 8.33677 5.94767 8.40028C5.88057 8.4638 5.82715 8.54012 5.79066 8.62466C5.75417 8.70921 5.73535 8.8002 5.73535 8.89215C5.73535 8.9841 5.75417 9.0751 5.79066 9.15963C5.82715 9.24417 5.88057 9.32051 5.94767 9.38402C6.01479 9.44753 6.09419 9.4969 6.1811 9.52915C6.26801 9.56139 6.36062 9.57585 6.45333 9.57164H9.68692L11.2735 11.1549H8.38887C8.29616 11.1507 8.20356 11.1652 8.11665 11.1974C8.02974 11.2297 7.95032 11.2791 7.88322 11.3426C7.81611 11.4061 7.7627 11.4824 7.7262 11.567C7.68971 11.6515 7.67089 11.7425 7.67089 11.8345C7.67089 11.9264 7.68971 12.0174 7.7262 12.1019C7.7627 12.1865 7.81611 12.2628 7.88322 12.3263C7.95032 12.3898 8.02974 12.4392 8.11665 12.4714C8.20356 12.5036 8.29616 12.5182 8.38887 12.5139H12.6407L15.2109 15.0589L12.4706 19.7589H9.62203L6.61487 16.7794C6.48634 16.6521 6.31203 16.5806 6.13026 16.5806C5.9485 16.5806 5.77418 16.6521 5.64566 16.7794C5.51713 16.9068 5.44493 17.0795 5.44493 17.2596C5.44493 17.4396 5.51713 17.6124 5.64566 17.7397L7.68215 19.7589H5.42355L3.14041 17.4968C3.01005 17.3784 2.83865 17.3145 2.66189 17.3183C2.48514 17.3221 2.31666 17.3933 2.19156 17.5171C2.06645 17.6407 1.99436 17.8076 1.9903 17.9827C1.98624 18.1578 2.05052 18.3278 2.16976 18.4571L3.48368 19.7589H1.6462C1.5535 19.7547 1.46089 19.7691 1.37398 19.8013C1.28707 19.8337 1.20766 19.8829 1.14055 19.9465C1.07345 20.01 1.02003 20.0864 0.983532 20.1709C0.947036 20.2555 0.928223 20.3464 0.928223 20.4384C0.928223 20.5304 0.947036 20.6213 0.983532 20.7059C1.02003 20.7904 1.07345 20.8668 1.14055 20.9302C1.20766 20.9938 1.28707 21.0432 1.37398 21.0754C1.46089 21.1076 1.5535 21.122 1.6462 21.1178H3.48512L2.1712 22.4197C2.05197 22.549 1.98768 22.7189 1.99175 22.894C1.99581 23.0691 2.0679 23.236 2.193 23.3598C2.31811 23.4835 2.48658 23.5547 2.66334 23.5585C2.84009 23.5622 3.0115 23.4983 3.14186 23.38L5.42355 21.1236H7.68215L5.64853 23.1356C5.52911 23.2648 5.46457 23.4345 5.46837 23.6097C5.47217 23.7848 5.54402 23.9517 5.66894 24.0757C5.79385 24.1997 5.96221 24.2711 6.13896 24.2751C6.31571 24.2791 6.48722 24.2155 6.61775 24.0973L9.62203 21.1236H12.4402L15.1936 25.8393L12.6508 28.3585H8.39897C8.30626 28.3543 8.21366 28.3688 8.12675 28.401C8.03984 28.4333 7.96042 28.4826 7.89332 28.5462C7.82621 28.6097 7.7728 28.686 7.73629 28.7706C7.6998 28.8551 7.68098 28.9461 7.68098 29.0381C7.68098 29.13 7.6998 29.221 7.73629 29.3055C7.7728 29.3901 7.82621 29.4664 7.89332 29.5299C7.96042 29.5934 8.03984 29.6428 8.12675 29.675C8.21366 29.7072 8.30626 29.7217 8.39897 29.7175H11.2835L9.68692 31.3037H6.45333C6.36062 31.2995 6.26801 31.3139 6.1811 31.3462C6.09419 31.3784 6.01479 31.4278 5.94767 31.4913C5.88057 31.5548 5.82715 31.6311 5.79066 31.7156C5.75417 31.8002 5.73535 31.8913 5.73535 31.9831C5.73535 32.0751 5.75417 32.1662 5.79066 32.2507C5.82715 32.3352 5.88057 32.4116 5.94767 32.475C6.01479 32.5386 6.09419 32.588 6.1811 32.6202C6.26801 32.6524 6.36062 32.6668 6.45333 32.6627H8.31099L7.01294 33.9488C6.8935 34.0779 6.82898 34.2477 6.83277 34.4228C6.83657 34.5979 6.90841 34.7649 7.03333 34.8889C7.15826 35.0128 7.32662 35.0842 7.50337 35.0883C7.68011 35.0923 7.85161 35.0285 7.98215 34.9104L9.2802 33.6244V35.4649C9.28829 35.6397 9.36409 35.8047 9.49182 35.9256C9.61954 36.0465 9.78937 36.114 9.966 36.114C10.1426 36.114 10.3125 36.0465 10.4402 35.9256C10.5679 35.8047 10.6437 35.6397 10.6519 35.4649V32.2697L12.2499 30.6863V33.5443C12.258 33.7192 12.3337 33.8842 12.4615 34.005C12.5892 34.126 12.7591 34.1934 12.9356 34.1934C13.1123 34.1934 13.2821 34.126 13.4098 34.005C13.5376 33.8842 13.6134 33.7192 13.6215 33.5443V29.3231L15.9032 27.0624L16.8421 28.673H20.9367V32.324L17.9296 35.3034C17.8611 35.3654 17.806 35.4404 17.7676 35.5241C17.7293 35.6077 17.7084 35.6982 17.7062 35.79C17.7041 35.8818 17.7208 35.9732 17.7553 36.0585C17.7897 36.1437 17.8413 36.2213 17.9068 36.2863C17.9723 36.3513 18.0505 36.4024 18.1365 36.4367C18.2225 36.471 18.3146 36.4877 18.4073 36.4857C18.5 36.4837 18.5914 36.4632 18.6758 36.4253C18.7602 36.3873 18.8361 36.3328 18.8988 36.2652L20.9367 34.2459V36.4838L18.6522 38.7472C18.5329 38.8766 18.4686 39.0465 18.4726 39.2217C18.4768 39.3968 18.5488 39.5636 18.6739 39.6873C18.7991 39.8111 18.9676 39.8823 19.1443 39.8861C19.3211 39.8899 19.4924 39.8259 19.6229 39.7075L20.9367 38.4058V40.2277C20.9448 40.4026 21.0206 40.5675 21.1483 40.6884C21.276 40.8093 21.4459 40.8767 21.6226 40.8767C21.7991 40.8767 21.969 40.8093 22.0967 40.6884C22.2245 40.5675 22.3002 40.4026 22.3083 40.2277V38.4058L23.6208 39.7075C23.7511 39.8259 23.9226 39.8899 24.0993 39.8861C24.2761 39.8823 24.4446 39.8111 24.5696 39.6873C24.6947 39.5636 24.7669 39.3968 24.7709 39.2217C24.7749 39.0465 24.7107 38.8766 24.5915 38.7472L22.3083 36.4838V34.2459L24.3419 36.2708C24.4052 36.3363 24.4809 36.3886 24.5648 36.4247C24.6487 36.4607 24.739 36.4798 24.8304 36.4808C24.9218 36.4818 25.0126 36.4647 25.0972 36.4305C25.1819 36.3963 25.2588 36.3457 25.3235 36.2817C25.3882 36.2175 25.4392 36.1414 25.4738 36.0574C25.5083 35.9736 25.5255 35.8837 25.5245 35.7931C25.5235 35.7025 25.5042 35.6131 25.4679 35.5299C25.4314 35.4468 25.3787 35.3718 25.3126 35.3091L22.3055 32.3297V28.673H26.3957L27.3347 27.0624L29.6178 29.3231V33.5372C29.6259 33.7121 29.7017 33.877 29.8294 33.9979C29.9572 34.1187 30.127 34.1862 30.3036 34.1862C30.4802 34.1862 30.6501 34.1187 30.7778 33.9979C30.9055 33.877 30.9814 33.7121 30.9894 33.5372V30.6792L32.5861 32.2697V35.4692C32.5941 35.644 32.6699 35.809 32.7976 35.9299C32.9254 36.0508 33.0952 36.1183 33.2718 36.1183C33.4485 36.1183 33.6183 36.0508 33.746 35.9299C33.8737 35.809 33.9496 35.644 33.9577 35.4692V33.6244L35.2557 34.9104C35.3853 35.0333 35.5584 35.1011 35.7379 35.0991C35.9173 35.0971 36.0888 35.0256 36.2157 34.8999C36.3426 34.7741 36.4147 34.6043 36.4167 34.4264C36.4188 34.2487 36.3504 34.0772 36.2263 33.9488L34.9283 32.6627H36.7874C36.9638 32.6546 37.1303 32.5796 37.2524 32.453C37.3744 32.3264 37.4425 32.1582 37.4425 31.9831C37.4425 31.8082 37.3744 31.6399 37.2524 31.5134C37.1303 31.3868 36.9638 31.3117 36.7874 31.3037H33.5567L31.9586 29.7218H34.8432C35.0197 29.7138 35.1862 29.6387 35.3082 29.5121C35.4301 29.3856 35.4982 29.2173 35.4982 29.0423C35.4982 28.8673 35.4301 28.699 35.3082 28.5725C35.1862 28.4459 35.0197 28.3708 34.8432 28.3628H30.5871L28.0443 25.8393L30.7991 21.1236H33.6158L36.623 24.103C36.7527 24.2259 36.9257 24.2936 37.1051 24.2916C37.2845 24.2897 37.4561 24.2182 37.583 24.0925C37.7099 23.9667 37.782 23.7968 37.7841 23.619C37.786 23.4413 37.7177 23.2697 37.5936 23.1413L35.5557 21.1236H37.8115L40.096 23.3856C40.2245 23.513 40.3989 23.5846 40.5806 23.5846C40.6706 23.5846 40.7597 23.567 40.8428 23.5328C40.926 23.4988 41.0016 23.4487 41.0652 23.3856C41.1289 23.3227 41.1793 23.2478 41.2138 23.1654C41.2482 23.083 41.2659 22.9947 41.2659 22.9055C41.2659 22.8164 41.2482 22.7281 41.2138 22.6457C41.1793 22.5633 41.1289 22.4884 41.0652 22.4253L39.7542 21.1236H41.5916C41.6844 21.1278 41.777 21.1133 41.8639 21.0811C41.9508 21.0488 42.0302 20.9995 42.0973 20.936C42.1644 20.8724 42.2178 20.7961 42.2543 20.7115C42.2908 20.627 42.3096 20.536 42.3096 20.4441C42.3096 20.3521 42.2908 20.2611 42.2543 20.1766C42.2178 20.092 42.1644 20.0157 42.0973 19.9523C42.0302 19.8887 41.9508 19.8393 41.8639 19.8071C41.777 19.7749 41.6844 19.7604 41.5916 19.7646V19.7589ZM25.6039 27.3139H17.6339L13.6489 20.4748L17.6339 13.6357H25.6039L29.5904 20.4748L25.6039 27.3139Z" fill="#121A29"/>
<path d="M19.2073 16.3237L16.7886 20.4749L19.2073 24.619H24.0389L26.4591 20.4749L24.0389 16.3237H19.2073ZM23.2456 23.2672H19.9933L18.3664 20.4749L19.9933 17.6827H23.2456L24.874 20.4749L23.2456 23.2672Z" fill="#121A29"/>
</g>
<defs>
<clipPath id="clip0_8586_7021">
<rect width="42.3667" height="41" fill="white" transform="translate(0.633301)"/>
</clipPath>
</defs>
</svg>
