<svg width="26" height="27" viewBox="0 0 26 27" fill="none" xmlns="http://www.w3.org/2000/svg">
<path fill-rule="evenodd" clip-rule="evenodd" d="M13 2.9375C7.16625 2.9375 2.4375 7.66625 2.4375 13.5C2.4375 19.3338 7.16625 24.0625 13 24.0625C18.8338 24.0625 23.5625 19.3338 23.5625 13.5C23.5625 7.66625 18.8338 2.9375 13 2.9375ZM11.1367 10.4883C11.0623 10.4085 10.9726 10.3445 10.8729 10.3001C10.7733 10.2557 10.6657 10.2318 10.5566 10.2299C10.4475 10.2279 10.3391 10.248 10.2379 10.2889C10.1368 10.3297 10.0449 10.3906 9.96771 10.4677C9.89056 10.5449 9.82973 10.6368 9.78887 10.7379C9.748 10.8391 9.72793 10.9475 9.72986 11.0566C9.73178 11.1657 9.75566 11.2733 9.80007 11.3729C9.84448 11.4726 9.90851 11.5623 9.98833 11.6367L11.8517 13.5L9.98833 15.3633C9.90851 15.4377 9.84448 15.5274 9.80007 15.6271C9.75566 15.7268 9.73178 15.8343 9.72986 15.9434C9.72793 16.0525 9.748 16.1609 9.78887 16.2621C9.82973 16.3632 9.89056 16.4551 9.96771 16.5323C10.0449 16.6094 10.1368 16.6703 10.2379 16.7111C10.3391 16.752 10.4475 16.7721 10.5566 16.7701C10.6657 16.7682 10.7733 16.7443 10.8729 16.6999C10.9726 16.6555 11.0623 16.5915 11.1367 16.5117L13 14.6483L14.8633 16.5117C14.9377 16.5915 15.0274 16.6555 15.1271 16.6999C15.2268 16.7443 15.3343 16.7682 15.4434 16.7701C15.5525 16.7721 15.6609 16.752 15.7621 16.7111C15.8632 16.6703 15.9551 16.6094 16.0323 16.5323C16.1094 16.4551 16.1703 16.3632 16.2111 16.2621C16.252 16.1609 16.2721 16.0525 16.2701 15.9434C16.2682 15.8343 16.2443 15.7268 16.1999 15.6271C16.1555 15.5274 16.0915 15.4377 16.0117 15.3633L14.1483 13.5L16.0117 11.6367C16.0915 11.5623 16.1555 11.4726 16.1999 11.3729C16.2443 11.2733 16.2682 11.1657 16.2701 11.0566C16.2721 10.9475 16.252 10.8391 16.2111 10.7379C16.1703 10.6368 16.1094 10.5449 16.0323 10.4677C15.9551 10.3906 15.8632 10.3297 15.7621 10.2889C15.6609 10.248 15.5525 10.2279 15.4434 10.2299C15.3343 10.2318 15.2268 10.2557 15.1271 10.3001C15.0274 10.3445 14.9377 10.4085 14.8633 10.4883L13 12.3517L11.1367 10.4883Z" fill="#DD8534"/>
</svg>
