<svg width="20" height="20" viewBox="0 0 20 20" fill="none" xmlns="http://www.w3.org/2000/svg">
<path d="M4.73307 1.66663L5.96517 6.11975V8.25517H7.03288V6.11975L8.28125 1.66663H7.2054L6.75781 3.69299C6.63198 4.28466 6.55197 4.70518 6.5153 4.95601H6.48275C6.43025 4.60518 6.35023 4.18152 6.24023 3.68485L5.80892 1.66663H4.73307ZM9.52637 3.34794C9.1647 3.34794 8.87322 3.41862 8.65072 3.56278C8.42822 3.70612 8.26418 3.93547 8.15918 4.24963C8.05501 4.5638 8.00293 4.97967 8.00293 5.49801V6.19788C8.00293 6.71038 8.04798 7.12081 8.13965 7.42997C8.23132 7.73914 8.38602 7.9669 8.60352 8.11357C8.82102 8.26023 9.12029 8.33329 9.50195 8.33329C9.87362 8.33329 10.1691 8.26099 10.3857 8.11682C10.6024 7.97265 10.7595 7.74652 10.8561 7.43485C10.9528 7.12319 11.001 6.71121 11.001 6.19788V5.49801C11.001 4.98051 10.952 4.56618 10.8529 4.25452C10.7537 3.94368 10.5959 3.71433 10.3809 3.56767C10.1659 3.421 9.8822 3.34794 9.52637 3.34794ZM11.5658 3.44234V7.03772C11.5658 7.48272 11.6403 7.81 11.792 8.01917C11.9437 8.22833 12.1792 8.33329 12.4984 8.33329C12.9584 8.33329 13.3052 8.11097 13.5352 7.66597H13.5579L13.6523 8.25517H14.5003V3.44234H13.418V7.26558C13.3763 7.35475 13.3126 7.42781 13.2259 7.48531C13.1392 7.54364 13.0499 7.57157 12.9557 7.57157C12.8457 7.57157 12.7672 7.52652 12.7197 7.43485C12.6722 7.34319 12.6481 7.18924 12.6481 6.97424V3.44234H11.5658ZM9.50195 4.09338C9.65362 4.09338 9.76096 4.17264 9.82096 4.33264C9.88096 4.49181 9.91048 4.74527 9.91048 5.0911V6.59013C9.91048 6.94596 9.88096 7.20332 9.82096 7.35999C9.76096 7.51665 9.65441 7.59515 9.50358 7.59599C9.35191 7.59599 9.24695 7.51665 9.18945 7.35999C9.13112 7.20332 9.10319 6.94596 9.10319 6.59013V5.0911C9.10319 4.7461 9.13271 4.49264 9.19271 4.33264C9.25271 4.17347 9.35529 4.09338 9.50195 4.09338ZM4.16667 9.16663C3.25 9.16663 2.5 9.91663 2.5 10.8333V16.6666C2.5 17.5833 3.25 18.3333 4.16667 18.3333H15.8333C16.75 18.3333 17.5 17.5833 17.5 16.6666V10.8333C17.5 9.91663 16.75 9.16663 15.8333 9.16663H4.16667ZM10.0407 10.8333H10.9212V12.9736H10.9277C11.0069 12.8186 11.1204 12.6942 11.2663 12.5992C11.4121 12.5042 11.5699 12.4576 11.7383 12.4576C11.9549 12.4576 12.1244 12.5152 12.2477 12.6302C12.3711 12.7452 12.4613 12.931 12.5163 13.1868C12.5713 13.4435 12.5977 13.7995 12.5977 14.2545V14.8974H12.5993C12.5993 15.5033 12.5254 15.9471 12.3796 16.2321C12.2337 16.5171 12.0068 16.6601 11.6976 16.6601C11.5251 16.6601 11.3689 16.6205 11.2272 16.5413C11.0855 16.4621 10.979 16.3533 10.9082 16.2158H10.8887L10.7959 16.5999H10.0407V10.8333ZM4.57194 11.0384H7.2819V11.7757H6.3737V16.5999H5.48014V11.7757H4.57194V11.0384ZM14.248 12.4593C14.5614 12.4593 14.8024 12.5168 14.9707 12.6318C15.1382 12.7468 15.2564 12.9264 15.3255 13.1689C15.3939 13.4122 15.4281 13.7481 15.4281 14.1764V14.873H13.8981V15.0797C13.8981 15.3405 13.9051 15.5356 13.9209 15.6656C13.9367 15.7956 13.9686 15.8913 14.0169 15.9505C14.0653 16.0105 14.1399 16.04 14.2415 16.04C14.3782 16.04 14.4723 15.9863 14.5231 15.8805C14.5739 15.7747 14.602 15.599 14.6061 15.3515L15.3955 15.3971C15.3997 15.4321 15.402 15.4819 15.402 15.5436C15.402 15.9194 15.2986 16.2001 15.0928 16.385C14.8869 16.5709 14.5978 16.6634 14.222 16.6634C13.7712 16.6634 13.4548 16.5211 13.2731 16.2386C13.0914 15.9561 13.0013 15.5192 13.0013 14.9267V14.2171C13.0013 13.6071 13.0954 13.1617 13.2829 12.8808C13.4704 12.6 13.793 12.4593 14.248 12.4593ZM7.00846 12.5374H7.9248V15.5208C7.9248 15.7016 7.94503 15.8315 7.98503 15.9082C8.02503 15.9857 8.09026 16.0237 8.18359 16.0237C8.26276 16.0237 8.34059 15.9996 8.41309 15.9505C8.48642 15.9021 8.53838 15.8399 8.57422 15.7649V12.5374H9.49056V16.5999H9.48893H8.77279L8.69466 16.1018H8.6735C8.4785 16.4785 8.18702 16.6666 7.79785 16.6666C7.52785 16.6666 7.33048 16.578 7.20215 16.4013C7.07381 16.2247 7.00846 15.9479 7.00846 15.5729V12.5374ZM14.2285 13.0778C14.131 13.0778 14.0587 13.1074 14.012 13.164C13.9654 13.2215 13.9343 13.3156 13.9193 13.4456C13.9034 13.5756 13.8965 13.773 13.8965 14.038V14.3294H14.5654V14.038C14.5654 13.7772 14.5569 13.5806 14.5394 13.4456C14.5227 13.3106 14.49 13.2158 14.4434 13.1608C14.3967 13.1058 14.326 13.0778 14.2285 13.0778ZM11.3265 13.1071C11.2382 13.1071 11.1574 13.142 11.0824 13.2128C11.0074 13.2837 10.9537 13.3747 10.9229 13.4847V15.791C10.9629 15.8618 11.0149 15.9146 11.0791 15.9505C11.1433 15.9855 11.2116 16.0042 11.2874 16.0042C11.3849 16.0042 11.4611 15.9692 11.5186 15.8984C11.5761 15.8276 11.6181 15.7087 11.6423 15.5403C11.6664 15.3728 11.6781 15.1395 11.6781 14.8437V14.3212C11.6781 14.0029 11.6688 13.7581 11.6488 13.5856C11.6288 13.4131 11.593 13.2886 11.543 13.2161C11.4921 13.1436 11.4198 13.1071 11.3265 13.1071Z" fill="#141414"/>
</svg>
